<svg width="27" height="31" viewBox="0 0 27 31" fill="none" xmlns="http://www.w3.org/2000/svg">
<path fill-rule="evenodd" clip-rule="evenodd" d="M12.8691 24.1775H23.517C25.9468 24.1775 25.9721 21.6538 25.7239 20.4085C25.5888 19.5706 24.1316 19.5838 23.9712 20.4085V21.38C23.9708 21.5942 23.8835 21.7996 23.7284 21.951C23.5733 22.1025 23.3631 22.1878 23.1438 22.1883H2.73288C2.51358 22.1878 2.30339 22.1025 2.14832 21.951C1.99326 21.7996 1.90594 21.5942 1.9055 21.38V20.4085C1.74509 19.5838 0.287884 19.5706 0.152802 20.4085C-0.0954121 21.6538 -0.0700842 24.1775 2.35971 24.1775H12.8691ZM5.34335 0H21.7592C22.9125 0 23.8564 0.976468 23.8564 2.16901V3.20486C23.8564 4.66956 21.8302 4.66296 21.8302 3.21476V2.65065C21.8302 2.47567 21.759 2.30785 21.6323 2.18412C21.5057 2.06038 21.3339 1.99087 21.1548 1.99087H4.70508C4.52595 1.99087 4.35416 2.06038 4.22749 2.18412C4.10083 2.30785 4.02967 2.47567 4.02967 2.65065V3.20486C4.02967 4.66131 2.09461 4.65142 2.09461 3.2362V2.17066C2.09968 0.978117 3.04188 0 4.19515 0H5.34335Z" fill="#3D73B9"/>
<path fill-rule="evenodd" clip-rule="evenodd" d="M23.4436 11.9098C24.0073 12.1556 24.4874 12.5535 24.8278 13.0566C25.1682 13.5597 25.3546 14.1471 25.3651 14.7501C25.3651 16.4952 23.8049 17.9236 21.8986 17.9236H16.551C16.319 17.9303 16.0937 17.8476 15.9237 17.6932C15.7537 17.5389 15.6527 17.3254 15.6426 17.0989V7.15607C15.6435 6.92507 15.7379 6.70381 15.9053 6.54063C16.0727 6.37744 16.2993 6.2856 16.5358 6.28517H20.9885C21.6561 6.28365 22.3094 6.47422 22.8668 6.8331C23.4242 7.19197 23.8612 7.70326 24.123 8.30316C24.3849 8.90306 24.4601 9.56501 24.3392 10.2064C24.2184 10.8478 23.9069 11.4402 23.4436 11.9098ZM19.4536 11.1015H21.1506V11.0834C21.5314 11.025 21.8785 10.8361 22.1297 10.5505C22.381 10.2649 22.5199 9.90122 22.5217 9.52466C22.5203 9.10685 22.3498 8.70653 22.0474 8.41109C21.7449 8.11566 21.3351 7.9491 20.9074 7.9478H17.4881V16.195H21.8226C22.046 16.2019 22.2686 16.165 22.4771 16.0862C22.6856 16.0075 22.8758 15.8886 23.0364 15.7367C23.197 15.5848 23.3246 15.4028 23.4118 15.2018C23.499 15.0007 23.5439 14.7845 23.5439 14.5662C23.5439 14.3478 23.499 14.1317 23.4118 13.9306C23.3246 13.7295 23.197 13.5476 23.0364 13.3957C22.8758 13.2437 22.6856 13.1249 22.4771 13.0461C22.2686 12.9674 22.046 12.9304 21.8226 12.9374H21.1472H19.4536C19.3305 12.9374 19.2087 12.9137 19.095 12.8677C18.9813 12.8217 18.878 12.7542 18.7909 12.6692C18.7039 12.5842 18.6349 12.4833 18.5878 12.3722C18.5407 12.2612 18.5165 12.1421 18.5165 12.0219C18.5165 11.9017 18.5407 11.7827 18.5878 11.6716C18.6349 11.5605 18.7039 11.4596 18.7909 11.3746C18.878 11.2896 18.9813 11.2222 19.095 11.1762C19.2087 11.1302 19.3305 11.1065 19.4536 11.1065" fill="#1D1D1B"/>
<path d="M6.02181 27.226C6.02181 27.1517 6.05206 27.0803 6.10589 27.0278C6.15972 26.9752 6.23273 26.9456 6.30886 26.9456C6.38499 26.9456 6.45801 26.9752 6.51184 27.0278C6.56567 27.0803 6.59591 27.1517 6.59591 27.226V28.7402C6.59547 29.0731 6.46 29.3923 6.21916 29.6279C5.97833 29.8635 5.65176 29.9962 5.31094 29.9971C4.97013 29.9967 4.64338 29.8643 4.40222 29.6291C4.16107 29.3938 4.02517 29.0748 4.02428 28.7419V27.2277C4.02125 27.1892 4.0264 27.1504 4.03941 27.114C4.05242 27.0775 4.07301 27.044 4.09988 27.0157C4.12675 26.9873 4.15933 26.9647 4.19557 26.9492C4.23182 26.9338 4.27094 26.9258 4.31049 26.9258C4.35004 26.9258 4.38916 26.9338 4.4254 26.9492C4.46164 26.9647 4.49422 26.9873 4.5211 27.0157C4.54797 27.044 4.56856 27.0775 4.58157 27.114C4.59457 27.1504 4.59972 27.1892 4.59669 27.2277V28.7419C4.59846 28.9267 4.67451 29.1034 4.80844 29.2339C4.94237 29.3644 5.12345 29.4383 5.31263 29.4396C5.50208 29.4387 5.68349 29.3647 5.81729 29.2337C5.9511 29.1027 6.02644 28.9253 6.02688 28.7402L6.02181 27.226Z" fill="#1D1D1B"/>
<path d="M8.73586 29.4399C8.81199 29.4399 8.885 29.4694 8.93884 29.522C8.99267 29.5746 9.02291 29.6459 9.02291 29.7203C9.02291 29.7946 8.99267 29.866 8.93884 29.9186C8.885 29.9711 8.81199 30.0007 8.73586 30.0007H7.93888C7.65361 30.0007 7.38003 29.89 7.17832 29.6929C6.9766 29.4959 6.86328 29.2287 6.86328 28.95V27.228C6.86328 27.154 6.89335 27.0831 6.94686 27.0309C7.00038 26.9786 7.07296 26.9492 7.14864 26.9492C7.22433 26.9492 7.29691 26.9786 7.35042 27.0309C7.40394 27.0831 7.434 27.154 7.434 27.228V28.9467C7.434 29.0779 7.48737 29.2038 7.58237 29.2966C7.67737 29.3894 7.80622 29.4415 7.94056 29.4415H8.73586V29.4399Z" fill="#1D1D1B"/>
<path d="M14.7932 16.9317C14.8139 17.0713 14.8055 17.2136 14.7686 17.3501C14.7316 17.4865 14.6669 17.6142 14.5782 17.7256C14.4896 17.837 14.3788 17.9298 14.2526 17.9985C14.1264 18.0671 13.9873 18.1101 13.8436 18.125C13.6999 18.1399 13.5547 18.1263 13.4165 18.085C13.2784 18.0438 13.1502 17.9757 13.0396 17.885C12.929 17.7942 12.8383 17.6826 12.7728 17.5567C12.7074 17.4309 12.6687 17.2935 12.6589 17.1527L11.7758 9.25023L8.66725 16.9779V16.9976V17.0141V17.0306V17.0405V17.0554V17.0719C8.59907 17.1884 8.5078 17.2904 8.39877 17.3721L8.38189 17.3853C8.32536 17.4351 8.26301 17.4783 8.19615 17.5139L8.17589 17.5238L8.15731 17.5337H8.14549H8.13199H8.12017H8.10666H8.09653H8.08471H8.07458H8.06445H8.05094C7.95 17.5689 7.84401 17.5884 7.73687 17.5914H7.6592C7.53878 17.5881 7.4199 17.5641 7.30798 17.5205H7.29279H7.27759H7.26408H7.25395H7.24044H7.22862H7.22018L7.20161 17.5106L7.18472 17.5007H7.17459C7.11465 17.4695 7.05809 17.4325 7.00574 17.3902L6.97028 17.3589L6.94326 17.3341L6.8791 17.3176L6.84701 17.283C6.80374 17.2319 6.76584 17.1766 6.73388 17.1181V17.1082L6.72375 17.0917L6.71362 17.0735V17.062V17.0488V17.0389V17.024V17.0108V16.996L3.54762 9.25023L2.6679 17.1527C2.6379 17.429 2.49678 17.6822 2.27559 17.8569C2.0544 18.0315 1.77126 18.1131 1.48846 18.0838C1.20566 18.0545 0.946358 17.9166 0.767603 17.7006C0.588848 17.4845 0.505281 17.2079 0.535285 16.9317L1.57204 7.61564C1.59708 7.39624 1.6647 7.18351 1.77129 6.98885C1.90432 6.74565 2.09466 6.53684 2.32661 6.37967C2.55855 6.2225 2.82543 6.12149 3.10523 6.08496H3.16264C3.25313 6.0784 3.344 6.0784 3.43449 6.08496C3.5437 6.0892 3.65226 6.10356 3.75869 6.12785C4.03879 6.1905 4.29893 6.31916 4.51643 6.50259C4.73394 6.68602 4.90219 6.91865 5.00652 7.18019L7.66426 13.7417L10.3169 7.15874C10.4417 6.84672 10.6568 6.57695 10.936 6.38245C11.2152 6.18794 11.5463 6.07711 11.889 6.06352C11.9795 6.05695 12.0703 6.05695 12.1608 6.06352H12.2182C12.4979 6.1003 12.7647 6.20142 12.9966 6.35856C13.2285 6.5157 13.4189 6.72437 13.5522 6.96741C13.6039 7.06493 13.6474 7.16643 13.6822 7.27091C13.7163 7.37837 13.7395 7.48887 13.7514 7.60079L14.7932 16.9317Z" fill="#1D1D1B"/>
<path d="M3.91186 29.6888C3.91884 29.7264 3.91786 29.7651 3.90898 29.8023C3.9001 29.8396 3.8835 29.8747 3.86021 29.9055C3.83692 29.9362 3.80743 29.962 3.77356 29.9812C3.73968 30.0005 3.70214 30.0127 3.66324 30.0172C3.62434 30.0217 3.58491 30.0184 3.54737 30.0075C3.50983 29.9965 3.47498 29.9782 3.44497 29.9536C3.41495 29.929 3.3904 29.8987 3.37284 29.8645C3.35527 29.8303 3.34506 29.7929 3.34282 29.7547L3.09799 27.7375L2.22164 29.7168C2.19156 29.785 2.13502 29.8387 2.06444 29.8662C1.99385 29.8938 1.91497 29.8928 1.8451 29.8636C1.77796 29.8353 1.72468 29.7827 1.69651 29.7168L0.820159 27.7375L0.573634 29.7547C0.5714 29.7929 0.561186 29.8303 0.54362 29.8645C0.526054 29.8987 0.501507 29.929 0.471491 29.9536C0.441475 29.9782 0.406625 29.9965 0.369087 30.0075C0.331548 30.0184 0.292116 30.0217 0.253217 30.0172C0.214317 30.0127 0.176775 30.0005 0.1429 29.9812C0.109025 29.962 0.0795352 29.9362 0.0562453 29.9055C0.0329553 29.8747 0.0163585 29.8396 0.00747641 29.8023C-0.00140567 29.7651 -0.00238499 29.7264 0.00459871 29.6888L0.293338 27.3466C0.302604 27.2728 0.330429 27.2024 0.37433 27.1416C0.41823 27.0809 0.47684 27.0317 0.544929 26.9985C0.56287 26.989 0.581492 26.9807 0.60065 26.9738H0.622601C0.649916 26.9645 0.678254 26.9584 0.707028 26.9556C0.778951 26.9459 0.852199 26.9519 0.92143 26.9733C0.990662 26.9947 1.05413 27.0309 1.10721 27.0793C1.12851 27.0989 1.14775 27.1204 1.16462 27.1437C1.17708 27.1605 1.18836 27.1781 1.19839 27.1965C1.20467 27.2066 1.21031 27.217 1.21528 27.2278L1.95823 28.9102L2.70118 27.2146C2.73171 27.1472 2.77829 27.088 2.83704 27.0418C2.89579 26.9956 2.965 26.9638 3.03889 26.949C3.06675 26.9435 3.09495 26.9396 3.12332 26.9375H3.21112C3.28421 26.9455 3.35445 26.9698 3.41649 27.0084C3.47852 27.047 3.53072 27.0989 3.56909 27.1602C3.58509 27.1856 3.59811 27.2127 3.60792 27.241C3.61498 27.2586 3.62007 27.2768 3.62312 27.2954C3.62392 27.3075 3.62392 27.3196 3.62312 27.3317L3.91186 29.6888Z" fill="#1D1D1B"/>
<path d="M9.98531 29.718C9.98531 29.7924 9.95506 29.8637 9.90123 29.9163C9.8474 29.9689 9.77438 29.9984 9.69825 29.9984C9.62212 29.9984 9.54911 29.9689 9.49528 29.9163C9.44145 29.8637 9.4112 29.7924 9.4112 29.718V27.5061H8.59564C8.51951 27.5061 8.4465 27.4766 8.39267 27.424C8.33884 27.3714 8.30859 27.3001 8.30859 27.2257C8.30859 27.1513 8.33884 27.08 8.39267 27.0274C8.4465 26.9749 8.51951 26.9453 8.59564 26.9453H10.8009C10.877 26.9453 10.95 26.9749 11.0038 27.0274C11.0577 27.08 11.0879 27.1513 11.0879 27.2257C11.0879 27.3001 11.0577 27.3714 11.0038 27.424C10.95 27.4766 10.877 27.5061 10.8009 27.5061H9.98531V29.718Z" fill="#1D1D1B"/>
<path d="M11.7753 29.718C11.7753 29.7924 11.745 29.8637 11.6912 29.9163C11.6374 29.9689 11.5644 29.9984 11.4882 29.9984C11.4121 29.9984 11.3391 29.9689 11.2852 29.9163C11.2314 29.8637 11.2012 29.7924 11.2012 29.718V27.2257C11.2012 27.1513 11.2314 27.08 11.2852 27.0274C11.3391 26.9749 11.4121 26.9453 11.4882 26.9453C11.5644 26.9453 11.6374 26.9749 11.6912 27.0274C11.745 27.08 11.7753 27.1513 11.7753 27.2257V29.718Z" fill="#1D1D1B"/>
<path d="M17.6544 29.6879C17.6593 29.7594 17.6359 29.8301 17.589 29.8853C17.5422 29.9405 17.4755 29.9761 17.4027 29.9847C17.3298 29.9934 17.2563 29.9745 17.1973 29.9318C17.1383 29.8892 17.0983 29.8261 17.0854 29.7555L16.9841 28.9638H15.998C15.9585 28.9668 15.9189 28.9617 15.8816 28.949C15.8442 28.9363 15.81 28.9162 15.7809 28.8899C15.7519 28.8637 15.7288 28.8319 15.7129 28.7965C15.6971 28.7611 15.6889 28.7228 15.6889 28.6842C15.6889 28.6456 15.6971 28.6074 15.7129 28.572C15.7288 28.5366 15.7519 28.5047 15.7809 28.4785C15.81 28.4522 15.8442 28.4321 15.8816 28.4194C15.9189 28.4067 15.9585 28.4017 15.998 28.4046H16.9199L16.8929 28.1985C16.8929 28.1985 16.8929 28.1853 16.8929 28.1787C16.8854 28.1302 16.8747 28.0823 16.8608 28.0352C16.8454 27.9847 16.8256 27.9356 16.8017 27.8884C16.7515 27.7781 16.6702 27.684 16.5674 27.6172C16.4646 27.5503 16.3444 27.5133 16.2209 27.5106C16.172 27.511 16.1233 27.5165 16.0756 27.5271C16.0311 27.538 15.988 27.554 15.9473 27.575C15.8338 27.6391 15.7381 27.7295 15.6686 27.8382C15.5991 27.9469 15.558 28.0706 15.5488 28.1985L15.3698 29.7555C15.3657 29.7919 15.3543 29.8272 15.3363 29.8592C15.3182 29.8913 15.2939 29.9196 15.2647 29.9425C15.2354 29.9654 15.2019 29.9825 15.1659 29.9927C15.1299 30.0029 15.0922 30.0061 15.0549 30.0021C15.0177 29.9981 14.9816 29.987 14.9488 29.9693C14.9159 29.9517 14.8869 29.9279 14.8635 29.8994C14.8401 29.8708 14.8226 29.838 14.8121 29.8029C14.8017 29.7677 14.7984 29.7309 14.8025 29.6945L14.9815 28.1374C15.0005 27.9171 15.075 27.7047 15.1985 27.5194C15.3219 27.334 15.4904 27.1814 15.689 27.0752C15.7696 27.0356 15.8546 27.0052 15.9423 26.9845C16.0336 26.9637 16.1271 26.9532 16.2209 26.9531C16.4509 26.9544 16.6757 27.0198 16.869 27.1416C17.0622 27.2635 17.2158 27.4367 17.3117 27.6409C17.3508 27.7174 17.3835 27.7968 17.4096 27.8785C17.4316 27.9536 17.448 28.0302 17.4586 28.1077C17.4602 28.1159 17.4602 28.1243 17.4586 28.1325L17.6544 29.6879Z" fill="#1D1D1B"/>
<path d="M18.5307 29.718C18.5338 29.7565 18.5286 29.7953 18.5156 29.8317C18.5026 29.8682 18.482 29.9017 18.4551 29.93C18.4283 29.9584 18.3957 29.981 18.3595 29.9965C18.3232 30.0119 18.2841 30.0199 18.2445 30.0199C18.205 30.0199 18.1659 30.0119 18.1296 29.9965C18.0934 29.981 18.0608 29.9584 18.0339 29.93C18.0071 29.9017 17.9865 29.8682 17.9735 29.8317C17.9604 29.7953 17.9553 29.7565 17.9583 29.718V27.4088C17.9566 27.3929 17.9566 27.3769 17.9583 27.361C17.962 27.33 17.9694 27.2996 17.9803 27.2703L18.0039 27.2208C18.0533 27.135 18.1332 27.0698 18.2285 27.0377L18.2673 27.0278H18.2977H18.3653H18.3737C18.4323 27.0302 18.4897 27.045 18.5419 27.0712C18.5941 27.0974 18.6398 27.1344 18.676 27.1795L20.1956 29.0813V27.2257C20.1956 27.1513 20.2259 27.08 20.2797 27.0274C20.3335 26.9749 20.4066 26.9453 20.4827 26.9453C20.5588 26.9453 20.6318 26.9749 20.6857 27.0274C20.7395 27.08 20.7697 27.1513 20.7697 27.2257V29.5349C20.7695 29.5935 20.7558 29.6513 20.7298 29.7041C20.7038 29.7569 20.6661 29.8033 20.6195 29.8401C20.6011 29.8551 20.5813 29.8684 20.5604 29.8797C20.549 29.8861 20.5372 29.8917 20.5249 29.8962L20.5013 29.9061C20.4006 29.9404 20.2901 29.9345 20.1939 29.8896L20.1568 29.8714C20.1367 29.8591 20.1181 29.8447 20.1011 29.8285C20.0879 29.8173 20.0754 29.8052 20.0639 29.7922L20.0538 29.7807L18.5307 27.8723V29.718Z" fill="#1D1D1B"/>
<path d="M23.0071 29.4382C23.0832 29.4382 23.1562 29.4678 23.2101 29.5204C23.2639 29.5729 23.2941 29.6443 23.2941 29.7186C23.2941 29.793 23.2639 29.8643 23.2101 29.9169C23.1562 29.9695 23.0832 29.999 23.0071 29.999H22.1628C21.8632 29.999 21.5759 29.8828 21.3641 29.6758C21.1522 29.4689 21.0332 29.1882 21.0332 28.8956V28.0527C21.0341 27.7603 21.1534 27.4801 21.365 27.2734C21.5767 27.0666 21.8635 26.9501 22.1628 26.9492H23.0071C23.0832 26.9492 23.1562 26.9788 23.2101 27.0313C23.2639 27.0839 23.2941 27.1553 23.2941 27.2296C23.2941 27.304 23.2639 27.3753 23.2101 27.4279C23.1562 27.4805 23.0832 27.51 23.0071 27.51H22.1628C22.014 27.5117 21.8719 27.5711 21.7677 27.675C21.7149 27.7249 21.6727 27.7846 21.6437 27.8506C21.6147 27.9165 21.5995 27.9875 21.5989 28.0593V28.9022C21.5997 29.0467 21.6589 29.1851 21.7635 29.2873C21.8682 29.3895 22.0098 29.4473 22.1578 29.4481H23.002L23.0071 29.4382Z" fill="#1D1D1B"/>
<path d="M24.6677 27.5045C24.4658 27.5037 24.2716 27.5794 24.1256 27.7156C24.0564 27.7792 24.0011 27.8558 23.9631 27.9409C23.9251 28.0259 23.9051 28.1176 23.9044 28.2104V28.7333C23.9048 28.826 23.9245 28.9177 23.9622 29.0027C23.9999 29.0878 24.055 29.1645 24.124 29.2281C24.2699 29.3644 24.4641 29.44 24.666 29.4393C24.8678 29.44 25.0621 29.3644 25.208 29.2281C25.2772 29.1646 25.3325 29.0879 25.3705 29.0029C25.4085 28.9178 25.4285 28.8261 25.4292 28.7333V28.2104C25.4284 28.1178 25.4086 28.0263 25.3709 27.9412C25.3332 27.8562 25.2784 27.7795 25.2097 27.7156C25.0629 27.5797 24.8682 27.5041 24.666 27.5045M24.666 26.9453C25.0156 26.9441 25.3522 27.0753 25.6048 27.3115C25.7296 27.4271 25.8291 27.5662 25.8974 27.7204C25.9656 27.8746 26.001 28.0408 26.0016 28.2088V28.7317C26.001 28.8997 25.9656 29.0658 25.8974 29.22C25.8291 29.3743 25.7296 29.5134 25.6048 29.629C25.3522 29.8651 25.0156 29.9964 24.666 29.9951C24.3163 29.9964 23.9798 29.8651 23.7271 29.629C23.6029 29.5131 23.5038 29.3739 23.4359 29.2197C23.368 29.0655 23.3327 28.8995 23.332 28.7317V28.2088C23.3327 28.0409 23.368 27.875 23.4359 27.7208C23.5038 27.5666 23.6029 27.4274 23.7271 27.3115C23.9798 27.0753 24.3163 26.9441 24.666 26.9453Z" fill="#1D1D1B"/>
<path d="M12.5878 27.509V29.4405H13.6955C13.7428 29.4405 13.7897 29.4313 13.8335 29.4136C13.8772 29.3958 13.9169 29.3698 13.9504 29.337C13.9838 29.3042 14.0102 29.2653 14.0282 29.2225C14.0462 29.1796 14.0553 29.1338 14.0551 29.0875C14.0553 28.9995 14.0215 28.9147 13.9606 28.85L13.9487 28.8401C13.9159 28.8068 13.8766 28.7803 13.8331 28.7622C13.7896 28.744 13.7428 28.7346 13.6955 28.7345H13.3138C13.2377 28.7345 13.1647 28.705 13.1109 28.6524C13.057 28.5998 13.0268 28.5285 13.0268 28.4541C13.0268 28.3797 13.057 28.3084 13.1109 28.2558C13.1647 28.2033 13.2377 28.1737 13.3138 28.1737H13.4439C13.5253 28.1667 13.6017 28.1323 13.66 28.0764C13.6921 28.0456 13.7176 28.0089 13.735 27.9684C13.7524 27.9279 13.7613 27.8844 13.7613 27.8405C13.7613 27.753 13.7257 27.6691 13.6624 27.6073C13.5991 27.5454 13.5132 27.5106 13.4236 27.5106H12.5878V27.509ZM12.0137 28.4574V27.2401C12.0135 27.2021 12.0216 27.1644 12.0373 27.1296C12.0532 27.0936 12.0755 27.0607 12.1032 27.0323C12.1544 26.9845 12.2215 26.9564 12.2923 26.9531H13.4152C13.6574 26.9531 13.8898 27.0471 14.0611 27.2145C14.2324 27.3818 14.3287 27.6088 14.3287 27.8455C14.3281 28.0135 14.2796 28.178 14.1885 28.3205C14.2496 28.3558 14.3062 28.3979 14.3574 28.4459L14.3759 28.4657C14.5398 28.6344 14.6311 28.8582 14.6309 29.0908C14.6305 29.3321 14.5321 29.5635 14.3574 29.7341C14.1827 29.9048 13.9459 30.0009 13.6988 30.0013H12.3007C12.2246 30.0013 12.1516 29.9717 12.0977 29.9192C12.0439 29.8666 12.0137 29.7953 12.0137 29.7209V28.4574Z" fill="#1D1D1B"/>
</svg>
