<svg width="49" height="25" viewBox="0 0 49 25" fill="none" xmlns="http://www.w3.org/2000/svg">
<path d="M33.5093 10.7372C33.3921 11.1896 33.2712 11.6751 33.1431 12.2084C33.0149 12.7417 32.8867 13.2199 32.7769 13.6796C32.667 14.1393 32.5389 14.5586 32.4107 14.9154C32.3422 15.1692 32.249 15.4156 32.1324 15.651C32.0606 15.7677 31.9578 15.8619 31.8355 15.923C31.7132 15.9841 31.5763 16.0097 31.4403 15.9967C31.3164 15.9936 31.1934 15.9751 31.0741 15.9416C30.9945 15.9174 30.9208 15.8767 30.8578 15.8223C30.7947 15.7678 30.7437 15.7007 30.7079 15.6252C30.592 15.3794 30.4988 15.1233 30.4296 14.8602C30.3198 14.4924 30.2026 14.0437 30.0634 13.5472C29.9243 13.0507 29.8181 12.5284 29.6973 11.973C29.5764 11.4176 29.4592 10.9027 29.364 10.4283C29.2688 9.95382 29.1809 9.54556 29.115 9.21454C29.0491 8.88353 29.0125 8.68124 29.0015 8.61136C28.9995 8.5832 28.9995 8.55492 29.0015 8.52676V8.47895C28.9995 8.4132 29.0131 8.3479 29.0411 8.28844C29.0691 8.22897 29.1107 8.17704 29.1626 8.1369C29.2748 8.04777 29.4152 8.00209 29.5581 8.00817C29.687 8.00253 29.8145 8.03584 29.9243 8.1038C30.0299 8.18306 30.1008 8.30042 30.122 8.43114C30.122 8.43114 30.144 8.56722 30.188 8.79893C30.2319 9.03065 30.2941 9.30649 30.3637 9.64854C30.4333 9.9906 30.5139 10.3841 30.5981 10.8145C30.6823 11.2448 30.7739 11.6825 30.8727 12.1238C30.9716 12.5652 31.0631 12.9881 31.1583 13.4038C31.2536 13.8194 31.3378 14.1725 31.422 14.4704C31.5026 14.1908 31.5941 13.8709 31.693 13.5104C31.7918 13.15 31.8944 12.7748 31.9932 12.407C32.0921 12.0392 32.1837 11.6383 32.2752 11.2558C32.3668 10.8733 32.451 10.5202 32.5315 10.1819C32.6121 9.84348 32.6743 9.56027 32.7329 9.30282C32.7915 9.04536 32.8355 8.85778 32.8684 8.73273C32.9054 8.58813 32.9876 8.45924 33.1028 8.36493C33.2147 8.26292 33.3583 8.20312 33.5093 8.19575C33.6705 8.18828 33.829 8.23918 33.956 8.33919C34.0699 8.43214 34.1476 8.56231 34.1757 8.70698C34.2746 9.10788 34.3698 9.56395 34.476 10.0642C34.5822 10.5644 34.6957 11.0682 34.8092 11.5795C34.9227 12.0907 35.0472 12.5946 35.1754 13.0875C35.3036 13.5803 35.4207 14.0143 35.5416 14.3931C35.6221 14.0952 35.7137 13.7421 35.8089 13.3302C35.9041 12.9183 35.9956 12.4916 36.0945 12.0503C36.1934 11.6089 36.2923 11.1823 36.3801 10.7519C36.468 10.3216 36.5559 9.93543 36.6291 9.59338C36.7024 9.25132 36.7646 8.9718 36.8049 8.75848C36.8452 8.54515 36.8745 8.42746 36.8745 8.4201C36.8999 8.29199 36.97 8.17721 37.0722 8.09644C37.1817 8.02762 37.3095 7.99424 37.4384 8.00081C37.5823 7.99578 37.7235 8.0413 37.8376 8.12954C37.8888 8.17027 37.93 8.22232 37.9579 8.28165C37.9859 8.34097 37.9998 8.40597 37.9987 8.47159V8.51941C38.0004 8.5488 38.0004 8.57828 37.9987 8.60768C37.9987 8.67388 37.9511 8.87249 37.8815 9.21087C37.8119 9.54924 37.7277 9.94646 37.6288 10.4209C37.53 10.8954 37.4164 11.4103 37.2956 11.9583C37.1748 12.5063 37.0466 13.0286 36.9294 13.5251C36.8122 14.0217 36.6951 14.4593 36.5632 14.8345C36.4946 15.0953 36.4014 15.349 36.2849 15.5921C36.211 15.7466 36.0794 15.8655 35.9187 15.9232C35.8006 15.9633 35.6772 15.9856 35.5526 15.9894C35.5026 15.993 35.4524 15.993 35.4024 15.9894C35.3305 15.9791 35.2595 15.9631 35.19 15.9416C35.1114 15.9134 35.0374 15.8738 34.9703 15.8239C34.8935 15.767 34.8329 15.6909 34.7946 15.6032C34.6876 15.3502 34.5995 15.0896 34.5309 14.8235C34.4247 14.4557 34.3149 14.0511 34.194 13.595C34.0732 13.1389 33.9597 12.6534 33.8278 12.1532C33.696 11.653 33.6045 11.1859 33.5056 10.7519" fill="#1D1D1B"/>
<path d="M39.5657 13.6169C39.4508 14.0084 39.3495 14.371 39.265 14.7045C39.1805 15.0381 39.0926 15.31 39.0183 15.5239C39.0004 15.6681 38.9298 15.7988 38.822 15.8872C38.7143 15.9756 38.5782 16.0144 38.4438 15.9952C38.3094 15.976 38.1876 15.9002 38.1052 15.7846C38.0228 15.669 37.9866 15.5231 38.0045 15.3789C38.0038 15.3246 38.0118 15.2707 38.0281 15.2193L38.1701 14.7154C38.2512 14.4326 38.3559 14.0809 38.4843 13.6531C38.6128 13.2253 38.7581 12.7685 38.9135 12.2646C39.069 11.7607 39.2312 11.2603 39.3968 10.7673C39.5623 10.2742 39.7347 9.81379 39.8901 9.38961C40.0199 9.0332 40.1723 8.68676 40.3463 8.35273C40.3956 8.23161 40.4829 8.13284 40.593 8.07357C40.7267 8.01908 40.8692 7.99441 41.0121 8.00106C41.1589 7.9978 41.3048 8.02615 41.4412 8.08445C41.498 8.11359 41.5487 8.15457 41.5905 8.205C41.6322 8.25542 41.6642 8.31427 41.6846 8.37811C41.7927 8.62102 41.9211 8.95093 42.0664 9.36061C42.2117 9.77028 42.3739 10.2162 42.5361 10.6948C42.6983 11.1733 42.8741 11.6591 43.0228 12.145C43.1714 12.6308 43.3303 13.1021 43.4621 13.5299C43.5939 13.9577 43.7088 14.3239 43.8 14.6175C43.8912 14.9112 43.9554 15.1142 43.9757 15.2048C43.992 15.2562 44 15.3101 43.9994 15.3644C44.0028 15.432 43.9921 15.4997 43.9682 15.5624C43.9442 15.6251 43.9075 15.6813 43.8608 15.7269C43.8073 15.7781 43.7447 15.817 43.6767 15.8413C43.6087 15.8656 43.5368 15.8748 43.4654 15.8683C43.3603 15.8789 43.2553 15.8465 43.1714 15.7777C43.1005 15.7063 43.0481 15.6163 43.0194 15.5166C42.9417 15.3027 42.8538 15.0308 42.749 14.6973C42.6443 14.3637 42.5361 14.0012 42.4111 13.6096H39.5556M42.0901 12.5474C41.9279 12.0181 41.7792 11.5323 41.6339 11.0972C41.4886 10.6621 41.3601 10.2452 41.1979 9.83192C41.1608 9.74128 41.1202 9.63977 41.0797 9.5165C41.0391 9.39324 41.0121 9.3316 41.0053 9.30985C40.9736 9.37184 40.9487 9.43753 40.931 9.50563C40.887 9.63614 40.8499 9.74128 40.8093 9.83192C40.6572 10.2307 40.5119 10.6513 40.37 11.0972C40.2281 11.5431 40.0794 12.0253 39.9206 12.5474H42.0901Z" fill="#1D1D1B"/>
<path d="M45.9674 12.8678C45.9288 12.8247 45.8936 12.7779 45.8621 12.728L45.7535 12.5587C45.6483 12.3931 45.5397 12.1907 45.4246 11.9552C45.3094 11.7197 45.1778 11.4694 45.0561 11.2192C44.9344 10.969 44.8159 10.6856 44.7041 10.417C44.5922 10.1483 44.4803 9.89807 44.3915 9.68095C44.3027 9.46383 44.2171 9.24671 44.1513 9.07743C44.1019 8.95866 44.0612 8.83559 44.0296 8.70943C44.0168 8.67876 44.0069 8.6467 44 8.61375C44 8.61375 44 8.56591 44 8.52175C43.9996 8.45315 44.0117 8.38518 44.0354 8.32193C44.0592 8.25868 44.0941 8.20147 44.1382 8.15375C44.1899 8.10087 44.2507 8.06024 44.3169 8.03432C44.383 8.00839 44.4532 7.99769 44.5231 8.00287C44.5828 7.99535 44.6432 8.00266 44.7001 8.02429C44.757 8.04592 44.8089 8.08133 44.8521 8.12799C44.9099 8.20046 44.9556 8.28398 44.987 8.37455L45.0956 8.64687C45.1515 8.78671 45.2206 8.95967 45.2995 9.16575C45.3785 9.37183 45.4739 9.59999 45.5792 9.85023C45.6845 10.1005 45.7864 10.3397 45.9082 10.5862L46.2207 11.2744C46.3055 11.4596 46.3999 11.639 46.5036 11.8117C46.6714 11.5187 46.8241 11.2152 46.9609 10.9027C47.1222 10.5347 47.2899 10.1851 47.4248 9.82815C47.5597 9.47119 47.7012 9.15839 47.813 8.88975L48.0072 8.37823C48.0397 8.28749 48.0865 8.20399 48.1453 8.13167C48.1874 8.08318 48.2392 8.04655 48.2964 8.0248C48.3536 8.00304 48.4145 7.99679 48.4743 8.00655C48.5443 8.00094 48.6146 8.01143 48.6808 8.03738C48.747 8.06333 48.8077 8.10419 48.8592 8.15743C48.9044 8.20418 48.9401 8.26121 48.964 8.32468C48.9878 8.38816 48.9992 8.45661 48.9974 8.52543C49.0009 8.55598 49.0009 8.58688 48.9974 8.61743L48.9711 8.71311L48.8428 9.08111C48.7803 9.25407 48.7013 9.44911 48.6059 9.68463C48.5105 9.92015 48.4118 10.1667 48.3 10.4206C48.1881 10.6746 48.0631 10.9542 47.9413 11.2229C47.8196 11.4915 47.6979 11.7381 47.5762 11.9589C47.4544 12.1797 47.3393 12.4042 47.2472 12.5661C47.1841 12.6691 47.1125 12.7652 47.0333 12.8531V15.4291C47.0365 15.5042 47.0259 15.5791 47.0022 15.6494C46.9784 15.7197 46.942 15.7837 46.8952 15.8376C46.8009 15.9417 46.6739 16 46.5415 16C46.4091 16 46.282 15.9417 46.1878 15.8376C46.1373 15.7828 46.0975 15.7169 46.0709 15.6441C46.0443 15.5713 46.0315 15.4931 46.0332 15.4144V12.8384" fill="#1D1D1B"/>
<path fill-rule="evenodd" clip-rule="evenodd" d="M12.8183 24.1775H23.4662C25.896 24.1775 25.9214 21.6538 25.6731 20.4085C25.5381 19.5706 24.0809 19.5838 23.9204 20.4085V21.38C23.92 21.5942 23.8327 21.7996 23.6776 21.951C23.5225 22.1025 23.3124 22.1878 23.0931 22.1883H2.6821C2.4628 22.1878 2.25261 22.1025 2.09754 21.951C1.94248 21.7996 1.85516 21.5942 1.85472 21.38V20.4085C1.69431 19.5838 0.237103 19.5706 0.102021 20.4085C-0.146193 21.6538 -0.120865 24.1775 2.30893 24.1775H12.8183ZM5.29257 0H21.7085C22.8617 0 23.8056 0.976468 23.8056 2.16901V3.20486C23.8056 4.66956 21.7794 4.66296 21.7794 3.21476V2.65065C21.7794 2.47567 21.7082 2.30785 21.5816 2.18412C21.4549 2.06038 21.2831 1.99087 21.104 1.99087H4.6543C4.47517 1.99087 4.30338 2.06038 4.17671 2.18412C4.05005 2.30785 3.97889 2.47567 3.97889 2.65065V3.20486C3.97889 4.66131 2.04383 4.65142 2.04383 3.2362V2.17066C2.0489 0.978117 2.9911 0 4.14436 0H5.29257Z" fill="#FF0000"/>
<path fill-rule="evenodd" clip-rule="evenodd" d="M23.3928 11.9098C23.9565 12.1556 24.4367 12.5535 24.777 13.0566C25.1174 13.5597 25.3038 14.1471 25.3144 14.7501C25.3144 16.4952 23.7542 17.9236 21.8478 17.9236H16.5002C16.2682 17.9303 16.0429 17.8476 15.8729 17.6932C15.7029 17.5389 15.6019 17.3254 15.5918 17.0989V7.15607C15.5927 6.92507 15.6871 6.70381 15.8545 6.54063C16.0219 6.37744 16.2486 6.2856 16.485 6.28517H20.9377C21.6053 6.28365 22.2586 6.47422 22.816 6.8331C23.3735 7.19197 23.8104 7.70326 24.0722 8.30316C24.3341 8.90306 24.4093 9.56501 24.2885 10.2064C24.1676 10.8478 23.8561 11.4402 23.3928 11.9098ZM19.4028 11.1015H21.0998V11.0834C21.4806 11.025 21.8277 10.8361 22.079 10.5505C22.3302 10.2649 22.4691 9.90122 22.4709 9.52466C22.4695 9.10685 22.299 8.70653 21.9966 8.41109C21.6942 8.11566 21.2843 7.9491 20.8566 7.9478H17.4374V16.195H21.7718C21.9953 16.2019 22.2178 16.165 22.4264 16.0862C22.6349 16.0075 22.8251 15.8886 22.9856 15.7367C23.1462 15.5848 23.2739 15.4028 23.361 15.2018C23.4482 15.0007 23.4932 14.7845 23.4932 14.5662C23.4932 14.3478 23.4482 14.1317 23.361 13.9306C23.2739 13.7295 23.1462 13.5476 22.9856 13.3957C22.8251 13.2437 22.6349 13.1249 22.4264 13.0461C22.2178 12.9674 21.9953 12.9304 21.7718 12.9374H21.0964H19.4028C19.2797 12.9374 19.1579 12.9137 19.0442 12.8677C18.9305 12.8217 18.8272 12.7542 18.7402 12.6692C18.6531 12.5842 18.5841 12.4833 18.537 12.3722C18.4899 12.2612 18.4657 12.1421 18.4657 12.0219C18.4657 11.9017 18.4899 11.7827 18.537 11.6716C18.5841 11.5605 18.6531 11.4596 18.7402 11.3746C18.8272 11.2896 18.9305 11.2222 19.0442 11.1762C19.1579 11.1302 19.2797 11.1065 19.4028 11.1065" fill="#1D1D1B"/>
<path d="M14.7425 16.9317C14.7631 17.0713 14.7547 17.2136 14.7178 17.3501C14.6809 17.4865 14.6161 17.6142 14.5275 17.7256C14.4388 17.837 14.328 17.9298 14.2018 17.9985C14.0756 18.0671 13.9365 18.1101 13.7928 18.125C13.6492 18.1399 13.5039 18.1263 13.3658 18.085C13.2276 18.0438 13.0994 17.9757 12.9888 17.885C12.8782 17.7942 12.7875 17.6826 12.7221 17.5567C12.6567 17.4309 12.6179 17.2935 12.6082 17.1527L11.7251 9.25023L8.61647 16.9779V16.9976V17.0141V17.0306V17.0405V17.0554V17.0719C8.54829 17.1884 8.45702 17.2904 8.34799 17.3721L8.33111 17.3853C8.27458 17.4351 8.21223 17.4783 8.14537 17.5139L8.12511 17.5238L8.10653 17.5337H8.09471H8.0812H8.06939H8.05588H8.04575H8.03393H8.0238H8.01366H8.00016C7.89922 17.5689 7.79323 17.5884 7.68609 17.5914H7.60842C7.488 17.5881 7.36912 17.5641 7.2572 17.5205H7.24201H7.22681H7.2133H7.20317H7.18966H7.17784H7.1694L7.15082 17.5106L7.13394 17.5007H7.12381C7.06387 17.4695 7.0073 17.4325 6.95496 17.3902L6.9195 17.3589L6.89248 17.3341L6.82832 17.3176L6.79623 17.283C6.75296 17.2319 6.71506 17.1766 6.6831 17.1181V17.1082L6.67297 17.0917L6.66284 17.0735V17.062V17.0488V17.0389V17.024V17.0108V16.996L3.49684 9.25023L2.61712 17.1527C2.58711 17.429 2.446 17.6822 2.22481 17.8569C2.00362 18.0315 1.72048 18.1131 1.43768 18.0838C1.15488 18.0545 0.895577 17.9166 0.716822 17.7006C0.538067 17.4845 0.454499 17.2079 0.484504 16.9317L1.52126 7.61564C1.5463 7.39624 1.61392 7.18351 1.72051 6.98885C1.85354 6.74565 2.04388 6.53684 2.27582 6.37967C2.50777 6.2225 2.77465 6.12149 3.05445 6.08496H3.11186C3.20235 6.0784 3.29322 6.0784 3.38371 6.08496C3.49292 6.0892 3.60148 6.10356 3.70791 6.12785C3.988 6.1905 4.24815 6.31916 4.46565 6.50259C4.68315 6.68602 4.85141 6.91865 4.95573 7.18019L7.61348 13.7417L10.2662 7.15874C10.3909 6.84672 10.606 6.57695 10.8852 6.38245C11.1644 6.18794 11.4956 6.07711 11.8382 6.06352C11.9287 6.05695 12.0195 6.05695 12.11 6.06352H12.1674C12.4472 6.1003 12.7139 6.20142 12.9458 6.35856C13.1777 6.5157 13.3681 6.72437 13.5014 6.96741C13.5532 7.06493 13.5966 7.16643 13.6314 7.27091C13.6655 7.37837 13.6887 7.48887 13.7006 7.60079L14.7425 16.9317Z" fill="#1D1D1B"/>
</svg>
