<svg width="18" height="14" viewBox="0 0 18 14" fill="none" xmlns="http://www.w3.org/2000/svg"><path d="M18 1.657a7.637 7.637 0 0 1-2.12.557A3.576 3.576 0 0 0 17.502.259c-.714.405-1.504.699-2.345.857A3.768 3.768 0 0 0 12.462 0C10.423 0 8.77 1.582 8.77 3.534c0 .277.033.547.096.806-3.069-.147-5.79-1.555-7.611-3.693-.318.522-.5 1.13-.5 1.777 0 1.226.652 2.308 1.642 2.942a3.811 3.811 0 0 1-1.672-.442v.044c0 1.712 1.272 3.14 2.961 3.466a3.871 3.871 0 0 1-1.667.06c.47 1.404 1.833 2.426 3.45 2.455A7.625 7.625 0 0 1 .88 12.462a7.79 7.79 0 0 1-.881-.05A10.795 10.795 0 0 0 5.66 14c6.793 0 10.508-5.385 10.508-10.055a9.95 9.95 0 0 0-.011-.458A7.318 7.318 0 0 0 18 1.657z" fill="#fff"/></svg>