<svg width="168" height="50" viewBox="0 0 168 50" fill="none" xmlns="http://www.w3.org/2000/svg">
<path d="M123.757 13.8894C116.029 13.8894 109.754 20.105 109.754 27.7787C109.754 35.4524 116.021 41.6681 123.757 41.6681C131.494 41.6681 137.76 35.4524 137.76 27.7787C137.76 20.105 131.494 13.8894 123.757 13.8894ZM123.757 34.4443C120.044 34.4443 117.037 31.4614 117.037 27.7787C117.037 24.096 120.044 21.1131 123.757 21.1131C127.47 21.1131 130.477 24.096 130.477 27.7787C130.477 31.4614 127.47 34.4443 123.757 34.4443Z" fill="#FE6F00"/>
<path d="M44.8056 13.8894H37.5228V41.6597H44.8056V13.8894Z" fill="white"/>
<path d="M93.5172 13.8894C85.7892 13.8894 79.5144 20.105 79.5144 27.7787V50H86.7972V39.9683C88.788 41.0515 91.0812 41.6681 93.5172 41.6681C101.245 41.6681 107.52 35.4524 107.52 27.7787C107.52 20.105 101.254 13.8894 93.5172 13.8894ZM93.5172 34.4443C89.8044 34.4443 86.7972 31.4614 86.7972 27.7787C86.7972 24.096 89.8044 21.1131 93.5172 21.1131C97.23 21.1131 100.237 24.096 100.237 27.7787C100.237 31.4614 97.23 34.4443 93.5172 34.4443Z" fill="#FE6F00"/>
<path d="M33.6 0V41.6597H25.2L8.4 15.3224V41.6597H0V0H8.4L25.2 26.3373V0H33.6Z" fill="white"/>
<path d="M41.16 10.3483C43.4796 10.3483 45.36 8.48311 45.36 6.1823C45.36 3.8815 43.4796 2.01633 41.16 2.01633C38.8404 2.01633 36.96 3.8815 36.96 6.1823C36.96 8.48311 38.8404 10.3483 41.16 10.3483Z" fill="#C41818"/>
<path d="M153.997 13.8894C146.269 13.8894 139.994 20.105 139.994 27.7787V41.6681H147.277V27.7787C147.277 24.096 150.284 21.1131 153.997 21.1131C157.71 21.1131 160.717 24.096 160.717 27.7787V41.6681H168V27.7787C168 20.105 161.734 13.8894 153.997 13.8894Z" fill="#FE6F00"/>
<path d="M62.7228 13.8894C54.9948 13.8894 48.72 20.105 48.72 27.7787V41.6681H56.0028V27.7787C56.0028 24.096 59.01 21.1131 62.7228 21.1131C66.4356 21.1131 69.4428 24.096 69.4428 27.7787V41.6681H76.7256V27.7787C76.7256 20.105 70.4592 13.8894 62.7228 13.8894Z" fill="white"/>
</svg>
