<?xml version="1.0" encoding="UTF-8"?><!DOCTYPE svg PUBLIC "-//W3C//DTD SVG 1.1//EN" "http://www.w3.org/Graphics/SVG/1.1/DTD/svg11.dtd"><svg xmlns="http://www.w3.org/2000/svg"><symbol id="all-tax" viewBox="0 0 36 38"><path d="M29.79 29.29c6.614-6.497 6.614-16.92 0-23.417-6.613-6.497-17.22-6.497-23.83 0-6.612 6.497-6.614 16.92 0 23.416" stroke="#2D2D2D" stroke-linecap="round" stroke-linejoin="round"/><path clip-rule="evenodd" d="M3.062 36.625h30-30z" stroke="#2D2D2D" stroke-linecap="round" stroke-linejoin="round"/><path d="M10 15h8M18 17.938h-8M22 12c-2.5-6-10-4-10 3v2.5c0 4.5 5 9.5 10 4" stroke="#2D2D2D" stroke-linecap="round" stroke-linejoin="round"/></symbol><symbol id="angle-left" viewBox="0 0 13 24"><path d="M10.38 23.538c.6.616 1.571.616 2.17 0 .6-.617.6-1.617 0-2.234L3.507 12l9.043-9.304c.6-.617.6-1.617 0-2.234a1.505 1.505 0 0 0-2.17 0L.59 10.535a2.117 2.117 0 0 0 0 2.93l9.79 10.073z"/></symbol><symbol id="angle-right" viewBox="0 0 13 24"><path d="M2.62.462a1.505 1.505 0 0 0-2.17 0c-.6.617-.6 1.617 0 2.234L9.493 12 .45 21.304c-.6.617-.6 1.617 0 2.234.599.616 1.57.616 2.17 0l9.79-10.073a2.118 2.118 0 0 0 0-2.93L2.62.462z"/></symbol><symbol id="cart" viewBox="0 0 22 23"><path d="M4.229 4.776L3.399.998H1"/><path clip-rule="evenodd" d="M6.42 15.113L4.229 4.775H19.97c.793 0 1.382.74 1.217 1.524l-1.868 8.814c-.123.58-.63.995-1.217.995H7.635a1.247 1.247 0 0 1-1.215-.995z"/><path d="M18.527 20.673a.466.466 0 0 0-.465.472c0 .26.21.472.467.472a.472.472 0 1 0-.002-.944M7.82 20.673a.466.466 0 0 0-.465.472.468.468 0 0 0 .466.472.47.47 0 0 0 .466-.472.47.47 0 0 0-.467-.472"/></symbol><symbol id="free-shipping" viewBox="0 0 39 34"><path d="M32.07 28.306a2.968 2.968 0 0 1 0 4.2 2.968 2.968 0 0 1-4.2 0 2.968 2.968 0 0 1 0-4.2 2.968 2.968 0 0 1 4.2 0M11.445 28.305a2.968 2.968 0 0 1 0 4.2 2.97 2.97 0 1 1 0-4.2M15.75 1.5h7.5c1.035 0 1.875.84 1.875 1.875v18.75H.75" stroke="#323232" stroke-linecap="round" stroke-linejoin="round"/><path d="M6.375 30.405h-3.75A1.876 1.876 0 0 1 .75 28.53V18.375M25.125 7.125h8.106c.767 0 1.456.467 1.74 1.18l3.01 7.526c.177.442.269.915.269 1.39v11.153c0 1.035-.84 1.875-1.875 1.875h-3.433M27 30.412H12.32" stroke="#323232" stroke-linecap="round" stroke-linejoin="round"/><path d="M38.25 20.25h-7.5v-7.5h6M.75 1.5h9.375M.75 7.125h5.625M2.625 12.75H.75" stroke="#323232" stroke-linecap="round" stroke-linejoin="round"/></symbol><symbol id="instagram" viewBox="0 0 16 16"><path d="M11.945 4.5h.009M5.9 15h4.2c3.5 0 4.9-1.4 4.9-4.9V5.9C15 2.4 13.6 1 10.1 1H5.9C2.4 1 1 2.4 1 5.9v4.2C1 13.6 2.4 15 5.9 15zM8 10.45a2.45 2.45 0 1 0 0-4.9 2.45 2.45 0 0 0 0 4.9z" stroke="#fff" stroke-width="2" stroke-linecap="round" stroke-linejoin="round"/></symbol><symbol id="pinterest" viewBox="0 0 16 16"><path d="M8 0A8 8 0 0 0 4.79 15.327c-.023-.559-.005-1.23.139-1.837l1.03-4.359s-.256-.51-.256-1.266c0-1.185.687-2.07 1.542-2.07.728 0 1.08.546 1.08 1.2 0 .732-.467 1.825-.707 2.839-.2.849.426 1.54 1.263 1.54 1.516 0 2.536-1.946 2.536-4.253 0-1.752-1.18-3.065-3.328-3.065-2.427 0-3.939 1.81-3.939 3.831 0 .698.206 1.189.528 1.569.148.175.168.245.115.446-.039.147-.127.502-.163.642-.053.203-.218.275-.4.2-1.119-.456-1.64-1.68-1.64-3.056 0-2.273 1.917-4.997 5.718-4.997 3.055 0 5.065 2.21 5.065 4.583 0 3.138-1.745 5.482-4.317 5.482-.863 0-1.676-.467-1.954-.997 0 0-.464 1.843-.563 2.2-.17.616-.501 1.233-.805 1.713A8 8 0 1 0 8 0z"/></symbol><symbol id="quality-packing" viewBox="0 0 47 46"><path d="M29.127 6.262v6.544c0 1.036-.84 1.876-1.875 1.876h-7.504a1.876 1.876 0 0 1-1.875-1.876V6.117" stroke="#323232" stroke-linecap="round" stroke-linejoin="round"/><path d="M40.382 20.062V9.869a3.752 3.752 0 0 0-3.752-3.752H10.37A3.752 3.752 0 0 0 6.618 9.87v24.385a3.752 3.752 0 0 0 3.752 3.752h11.254" stroke="#323232" stroke-linecap="round" stroke-linejoin="round"/><path d="M37.433 29.94v-3.258A3.682 3.682 0 0 0 33.751 23a3.682 3.682 0 0 0-3.686 3.682v3.258" stroke="#323232" stroke-linecap="round" stroke-linejoin="round"/><path clip-rule="evenodd" d="M37.97 29.94h-8.441a2.412 2.412 0 0 0-2.413 2.412v5.123a2.412 2.412 0 0 0 2.413 2.406h8.44a2.416 2.416 0 0 0 2.413-2.412v-5.123a2.412 2.412 0 0 0-2.412-2.406z" stroke="#323232" stroke-linecap="round" stroke-linejoin="round"/></symbol><symbol id="search" viewBox="0 0 16 16"><path clip-rule="evenodd" d="M11.156 10.467a6.342 6.342 0 0 0-9.299-8.61 6.34 6.34 0 0 0 0 8.967 6.343 6.343 0 0 0 8.609.333L15.31 16l.69-.69-4.844-4.843zm-1.02-7.92a5.366 5.366 0 1 1-7.588 0 5.366 5.366 0 0 1 7.588 0z"/></symbol><symbol id="top-discount" viewBox="0 0 33 36"><path d="M12.559 21.939l7.878-7.879M20.794 21.663a.448.448 0 0 1 0 .636.448.448 0 0 1-.636 0 .448.448 0 0 1 0-.636.448.448 0 0 1 .636 0M12.84 13.7a.448.448 0 0 1 0 .636.45.45 0 1 1 0-.636" stroke="#323232" stroke-linecap="round" stroke-linejoin="round"/><path clip-rule="evenodd" d="M1.494 4.452v27.616a1.875 1.875 0 0 0 2.714 1.677l1.446-.724a1.871 1.871 0 0 1 1.677 0l3.326 1.661c.527.265 1.15.265 1.677 0l3.326-1.662a1.871 1.871 0 0 1 1.677 0l3.325 1.662c.53.265 1.15.265 1.68 0l3.321-1.662a1.875 1.875 0 0 1 1.679 0l1.448.724a1.876 1.876 0 0 0 2.716-1.676V4.452a3.335 3.335 0 0 0-3.335-3.335H4.83a3.335 3.335 0 0 0-3.335 3.335z" stroke="#323232" stroke-linecap="round" stroke-linejoin="round"/></symbol><symbol id="twitter" viewBox="0 0 18 14"><path d="M18 1.657a7.637 7.637 0 0 1-2.12.557A3.576 3.576 0 0 0 17.502.259c-.714.405-1.504.699-2.345.857A3.768 3.768 0 0 0 12.462 0C10.423 0 8.77 1.582 8.77 3.534c0 .277.033.547.096.806-3.069-.147-5.79-1.555-7.611-3.693-.318.522-.5 1.13-.5 1.777 0 1.226.652 2.308 1.642 2.942a3.811 3.811 0 0 1-1.672-.442v.044c0 1.712 1.272 3.14 2.961 3.466a3.871 3.871 0 0 1-1.667.06c.47 1.404 1.833 2.426 3.45 2.455A7.625 7.625 0 0 1 .88 12.462a7.79 7.79 0 0 1-.881-.05A10.795 10.795 0 0 0 5.66 14c6.793 0 10.508-5.385 10.508-10.055a9.95 9.95 0 0 0-.011-.458A7.318 7.318 0 0 0 18 1.657z"/></symbol><symbol id="user" viewBox="0 0 20 20"><path fill-rule="evenodd" clip-rule="evenodd" d="M10 12a4 4 0 1 0 0-8 4 4 0 0 0 0 8zm0-1a3 3 0 1 0 0-6 3 3 0 0 0 0 6z"/><path fill-rule="evenodd" clip-rule="evenodd" d="M10 20c5.523 0 10-4.477 10-10S15.523 0 10 0 0 4.477 0 10s4.477 10 10 10zm6.406-3.679a9 9 0 1 0-12.813 0A9.96 9.96 0 0 1 10 14a9.96 9.96 0 0 1 6.406 2.321zm-.749.679A8.962 8.962 0 0 0 10 15c-2.143 0-4.112.75-5.657 2A8.962 8.962 0 0 0 10 19c2.143 0 4.112-.75 5.657-2z"/></symbol><symbol id="wishlist" viewBox="0 0 23 20"><path d="M11.15 3.018l.35.346.35-.346.88-.866c2.236-2.202 5.862-2.202 8.097 0a5.566 5.566 0 0 1 0 7.956l-9.327 9.19-9.327-9.19a5.566 5.566 0 0 1 0-7.956c2.235-2.203 5.861-2.203 8.096 0l.88.866z"/></symbol></svg>