<svg width="16" height="16" viewBox="0 0 16 16" fill="none" xmlns="http://www.w3.org/2000/svg"><path d="M8 0A8 8 0 0 0 4.79 15.327c-.023-.559-.005-1.23.139-1.837l1.03-4.359s-.256-.51-.256-1.266c0-1.185.687-2.07 1.542-2.07.728 0 1.08.546 1.08 1.2 0 .732-.467 1.825-.707 2.839-.2.849.426 1.54 1.263 1.54 1.516 0 2.536-1.946 2.536-4.253 0-1.752-1.18-3.065-3.328-3.065-2.427 0-3.939 1.81-3.939 3.831 0 .698.206 1.189.528 1.569.148.175.168.245.115.446-.039.147-.127.502-.163.642-.053.203-.218.275-.4.2-1.119-.456-1.64-1.68-1.64-3.056 0-2.273 1.917-4.997 5.718-4.997 3.055 0 5.065 2.21 5.065 4.583 0 3.138-1.745 5.482-4.317 5.482-.863 0-1.676-.467-1.954-.997 0 0-.464 1.843-.563 2.2-.17.616-.501 1.233-.805 1.713A8 8 0 1 0 8 0z" fill="#fff"/></svg>