<svg width="32" height="32" viewBox="0 0 32 32" fill="none" xmlns="http://www.w3.org/2000/svg">
<path d="M30.5002 15.5C30.224 15.5 30.0002 15.7239 30.0002 16C30.0002 23.7194 23.7199 29.9993 16.0001 29.9993C11.8665 29.9993 7.93376 28.1454 5.28519 24.9996H8.00003C8.27618 24.9996 8.50001 24.7757 8.50001 24.4996C8.50001 24.2235 8.27612 23.9997 8.00003 23.9997H3.99998C3.72383 23.9997 3.5 24.2235 3.5 24.4996V28.4995C3.5 28.7756 3.72389 28.9994 3.99998 28.9994C4.27608 28.9994 4.49997 28.7755 4.49997 28.4995V25.6199C7.33756 29.0043 11.5607 30.9993 16.0001 30.9993C24.2711 30.9993 31.0001 24.2706 31.0001 16C31.0001 15.7238 30.7762 15.5 30.5002 15.5Z" fill="black" stroke="black"/>
<path d="M16.0001 1.99998C20.1337 1.99998 24.0664 3.85392 26.715 6.99974H24.0002C23.724 6.99974 23.5002 7.22362 23.5002 7.4997C23.5002 7.77578 23.7241 7.99966 24.0002 7.99966H28.0002C28.2763 7.99966 28.5001 7.77578 28.5001 7.4997V3.49991C28.5001 3.22377 28.2762 2.99995 28.0002 2.99995C27.724 2.99995 27.5002 3.22383 27.5002 3.49991V6.37944C24.6626 2.99503 20.4395 1 16.0001 1C7.72906 1 1 7.72873 1 15.9994C1 16.2755 1.22389 16.4993 1.49998 16.4993C1.77608 16.4993 1.99997 16.2754 1.99997 15.9994C2.00003 8.27996 8.28031 1.99998 16.0001 1.99998Z" fill="black" stroke="black"/>
</svg>
