<svg width="39" height="7" viewBox="0 0 39 7" fill="none" xmlns="http://www.w3.org/2000/svg">
<path d="M3.60847 0.897523C3.79989 0.692214 3.79989 0.359316 3.60847 0.154006C3.41705 -0.0513354 3.10696 -0.0513354 2.91554 0.154006L0.143784 3.12814C0.118899 3.15381 0.0978433 3.18147 0.0806155 3.21061C-0.0457212 3.41467 -0.0227509 3.69202 0.143784 3.87165L2.91554 6.84601C3.00933 6.94741 3.13375 6.99873 3.25818 6.99998C3.38451 7.00123 3.51085 6.94992 3.60847 6.84601C3.7195 6.72693 3.76544 6.56494 3.74821 6.40982C3.73481 6.29747 3.68887 6.18872 3.60847 6.10246L1.63877 3.9883H39V2.93679H1.70768L3.60847 0.897523Z" fill="#2D2D2D"/>
</svg>
