<svg width="22" height="23" viewBox="0 0 22 23" fill="none" xmlns="http://www.w3.org/2000/svg">
<path d="M4.22864 4.77564L3.3991 0.998047H1" stroke-linecap="round" stroke-linejoin="round"/>
<path fill-rule="evenodd" clip-rule="evenodd" d="M6.42004 15.1134L4.22864 4.77539H19.9714C20.7636 4.77539 21.3531 5.51454 21.1877 6.29902L19.3197 15.1134C19.1966 15.6939 18.6904 16.1082 18.1034 16.1082H7.63513C7.04935 16.1082 6.54316 15.6939 6.42004 15.1134Z" stroke-linecap="round" stroke-linejoin="round"/>
<path d="M18.5267 20.673C18.2691 20.673 18.06 20.8846 18.0625 21.1452C18.0625 21.4059 18.2716 21.6174 18.5291 21.6174C18.7867 21.6174 18.9958 21.4059 18.9958 21.1452C18.9946 20.8846 18.7855 20.673 18.5267 20.673" stroke-linecap="round" stroke-linejoin="round"/>
<path d="M7.81952 20.673C7.56192 20.673 7.35286 20.8846 7.35534 21.1452C7.3541 21.4059 7.56316 21.6174 7.82076 21.6174C8.07836 21.6174 8.28742 21.4059 8.28742 21.1452C8.28742 20.8846 8.07836 20.673 7.81952 20.673" stroke-linecap="round" stroke-linejoin="round"/>
</svg>
