<svg width="108" height="110" viewBox="0 0 108 110" fill="none" xmlns="http://www.w3.org/2000/svg">
<path d="M19.9709 22.6754L15.8674 4H4" stroke="#C5C5C5" stroke-width="8" stroke-linecap="round" stroke-linejoin="round"/>
<path fill-rule="evenodd" clip-rule="evenodd" d="M30.8115 73.7842L19.9714 22.6758H97.845C101.764 22.6758 104.68 26.3299 103.862 30.2082L94.6213 73.7842C94.0122 76.6539 91.5083 78.702 88.6045 78.702H36.8221C33.9244 78.702 31.4205 76.6539 30.8115 73.7842Z" stroke="#C5C5C5" stroke-width="8" stroke-linecap="round" stroke-linejoin="round"/>
<path d="M90.6919 101.259C89.4184 101.259 88.3849 102.304 88.3972 103.593C88.3972 104.882 89.4307 105.927 90.7042 105.927C91.9777 105.927 93.0113 104.882 93.0113 103.593C93.0051 102.304 91.9716 101.259 90.6919 101.259" stroke="#C5C5C5" stroke-width="8" stroke-linecap="round" stroke-linejoin="round"/>
<path d="M37.7346 101.259C36.4612 101.259 35.4276 102.304 35.4399 103.593C35.4337 104.882 36.4673 105.927 37.7408 105.927C39.0143 105.927 40.0478 104.882 40.0478 103.593C40.0478 102.304 39.0143 101.259 37.7346 101.259" stroke="#C5C5C5" stroke-width="8" stroke-linecap="round" stroke-linejoin="round"/>
</svg>
