<svg width="9" height="9" viewBox="0 0 9 9" fill="none" xmlns="http://www.w3.org/2000/svg">
<path d="M0.252286 0.251529C0.587457 -0.0836707 1.13088 -0.0836707 1.46605 0.251529L8.74862 7.53473C9.08379 7.86993 9.08379 8.4134 8.74862 8.7486C8.41345 9.0838 7.87003 9.0838 7.53486 8.7486L0.252286 1.4654C-0.0828848 1.1302 -0.082885 0.58673 0.252286 0.251529Z" fill="white"/>
<path d="M8.74771 0.2514C9.08289 0.5866 9.08289 1.13007 8.74771 1.46527L1.46514 8.74847C1.12997 9.08367 0.586549 9.08367 0.251378 8.74847C-0.0837928 8.41327 -0.0837927 7.8698 0.251378 7.5346L7.53395 0.2514C7.86912 -0.0837998 8.41254 -0.0838002 8.74771 0.2514Z" fill="white"/>
</svg>
