<svg width="16" height="15" viewBox="0 0 16 15" fill="none" xmlns="http://www.w3.org/2000/svg">
<path d="M3.47328 12.6619L4.19268 9.02597L7.07029 11.9347L3.47328 12.6619Z" fill="#FE6F00" fill-opacity="0.8"/>
<path d="M11.386 1.75549L4.19176 9.02651L7.06907 11.9349L14.2633 4.6639L11.386 1.75549Z" fill="#FE6F00" fill-opacity="0.8"/>
<path d="M12.1053 1.02839L14.9826 3.9368L15.702 3.20969C15.9116 2.99679 16.011 2.71559 15.999 2.4384C15.9891 2.18934 15.8898 1.9443 15.702 1.75549L14.2633 0.301285C13.8659 -0.100428 13.2221 -0.100428 12.8247 0.301285L12.1053 1.02839Z" fill="#FE6F00" fill-opacity="0.8"/>
<path d="M5.63141 10.4807L6.35081 9.75354L7.07021 10.4807L6.35081 11.2079L5.63141 10.4807Z" fill="white"/>
<path d="M9.1565 1.63096H3.05217C1.3665 1.63096 0 3.01223 0 4.71612V11.9148C0 13.6187 1.3665 15 3.05217 15H10.1739C11.8596 15 13.2261 13.6187 13.2261 11.9148V7.80129H12.2087V11.9148C12.2087 13.0508 11.2977 13.9716 10.1739 13.9716H3.05217C1.92839 13.9716 1.01739 13.0508 1.01739 11.9148V4.71612C1.01739 3.5802 1.92839 2.65935 3.05217 2.65935H9.1565V1.63096Z" fill="#FE6F00" fill-opacity="0.8"/>
</svg>
