<svg width="16" height="16" viewBox="0 0 16 16" fill="none" xmlns="http://www.w3.org/2000/svg">
<path d="M11.9452 4.5H11.9536M5.9 15H10.1C13.6 15 15 13.6 15 10.1V5.9C15 2.4 13.6 1 10.1 1H5.9C2.4 1 1 2.4 1 5.9V10.1C1 13.6 2.4 15 5.9 15ZM8 10.45C8.32174 10.45 8.64033 10.3866 8.93757 10.2635C9.23482 10.1404 9.50491 9.95991 9.73241 9.73241C9.95991 9.50491 10.1404 9.23482 10.2635 8.93757C10.3866 8.64033 10.45 8.32174 10.45 8C10.45 7.67826 10.3866 7.35967 10.2635 7.06243C10.1404 6.76518 9.95991 6.49509 9.73241 6.26759C9.50491 6.04008 9.23482 5.85962 8.93757 5.73649C8.64033 5.61337 8.32174 5.55 8 5.55C7.35022 5.55 6.72705 5.80812 6.26759 6.26759C5.80812 6.72705 5.55 7.35022 5.55 8C5.55 8.64978 5.80812 9.27295 6.26759 9.73241C6.72705 10.1919 7.35022 10.45 8 10.45Z" stroke="white" stroke-width="2" stroke-linecap="round" stroke-linejoin="round"/>
</svg>
