<svg width="16" height="16" viewBox="0 0 16 16" fill="none" xmlns="http://www.w3.org/2000/svg">
<path d="M8.00021 0C3.58236 0 0 3.58176 0 7.99979C0 11.2755 1.96985 14.0893 4.78872 15.3266C4.76615 14.7681 4.78441 14.0971 4.928 13.4902C5.08185 12.8404 5.95733 9.13102 5.95733 9.13102C5.95733 9.13102 5.70174 8.62028 5.70174 7.86544C5.70174 6.68007 6.38892 5.79416 7.24431 5.79416C7.9719 5.79416 8.32349 6.3406 8.32349 6.99513C8.32349 7.72658 7.85723 8.81986 7.61723 9.83396C7.41662 10.6829 8.04287 11.3748 8.88 11.3748C10.3957 11.3748 11.4164 9.42823 11.4164 7.12148C11.4164 5.36875 10.2357 4.05641 8.0878 4.05641C5.66092 4.05641 4.14913 5.86596 4.14913 7.88719C4.14913 8.58459 4.35467 9.07584 4.67672 9.45592C4.82462 9.63089 4.84513 9.70125 4.79159 9.90226C4.75323 10.0493 4.66503 10.4036 4.62872 10.5441C4.57559 10.7467 4.41149 10.8189 4.2281 10.7443C3.11036 10.2879 2.58974 9.06395 2.58974 7.68802C2.58974 5.41531 4.50626 2.69073 8.30728 2.69073C11.3618 2.69073 13.3721 4.90088 13.3721 7.27388C13.3721 10.4116 11.6273 12.7561 9.05538 12.7561C8.192 12.7561 7.37949 12.289 7.10113 11.759C7.10113 11.759 6.63672 13.6018 6.53846 13.9583C6.36882 14.575 6.03672 15.1916 5.73313 15.6718C6.45272 15.8841 7.21272 16 8.00041 16C12.4181 15.9996 16 12.4176 16 7.99979C16 3.58176 12.4181 0 8.00021 0Z" fill="white"/>
</svg>
