<svg width="47" height="46" viewBox="0 0 47 46" fill="none" xmlns="http://www.w3.org/2000/svg">
<path d="M29.1273 6.26162V12.8062C29.1273 13.8422 28.2875 14.682 27.2515 14.682H19.7484C18.7124 14.682 17.8726 13.8422 17.8726 12.8062V6.11719" stroke="#323232" stroke-linecap="round" stroke-linejoin="round"/>
<path d="M40.382 20.0617V9.86875C40.382 7.79682 38.7023 6.11719 36.6304 6.11719H10.3695C8.29755 6.11719 6.61792 7.79682 6.61792 9.86875V34.2539C6.61792 36.3258 8.29755 38.0055 10.3695 38.0055H21.6242" stroke="#323232" stroke-linecap="round" stroke-linejoin="round"/>
<path d="M37.4333 29.9404V26.6822C37.4333 25.7056 37.0453 24.769 36.3548 24.0785C35.6642 23.3879 34.7277 23 33.7511 23V23C32.7739 22.999 31.8363 23.3865 31.145 24.0772C30.4536 24.7678 30.0652 25.7049 30.0652 26.6822V29.9404" stroke="#323232" stroke-linecap="round" stroke-linejoin="round"/>
<path fill-rule="evenodd" clip-rule="evenodd" d="M37.9697 29.9395H29.5287C28.8889 29.9395 28.2754 30.1936 27.823 30.646C27.3706 31.0984 27.1165 31.7119 27.1165 32.3517V37.4745C27.1196 38.8045 28.1987 39.8811 29.5287 39.8811H37.9697C39.3011 39.879 40.3799 38.8002 40.382 37.4688V32.3461C40.3789 31.016 39.2998 29.9395 37.9697 29.9395Z" stroke="#323232" stroke-linecap="round" stroke-linejoin="round"/>
</svg>
