<svg width="16" height="16" viewBox="0 0 16 16" fill="none" xmlns="http://www.w3.org/2000/svg">
<path fill-rule="evenodd" clip-rule="evenodd" d="M11.1561 10.4672C13.2966 7.97618 13.1864 4.21752 10.8255 1.85704C8.34902 -0.619013 4.33384 -0.619012 1.85736 1.85704C-0.61912 4.33309 -0.61912 8.34756 1.85736 10.8236C4.21731 13.1831 7.97455 13.2942 10.466 11.1567L15.3101 16L16 15.3103L11.1561 10.4672ZM10.1356 2.54677C12.2311 4.64189 12.2311 8.03875 10.1356 10.1339C8.04016 12.229 4.6427 12.229 2.54722 10.1339C0.451733 8.03875 0.451733 4.64189 2.54722 2.54677C4.6427 0.451654 8.04016 0.451654 10.1356 2.54677Z"/>
</svg>
