<svg width="33" height="36" viewBox="0 0 33 36" fill="none" xmlns="http://www.w3.org/2000/svg">
<path d="M12.559 21.9388L20.4372 14.0605" stroke="#323232" stroke-linecap="round" stroke-linejoin="round"/>
<path d="M20.7936 21.6629C20.9699 21.8392 20.9699 22.1244 20.7936 22.2988C20.6173 22.4751 20.3322 22.4751 20.1577 22.2988C19.9814 22.1225 19.9814 21.8374 20.1577 21.6629C20.3322 21.4866 20.6173 21.4866 20.7936 21.6629" stroke="#323232" stroke-linecap="round" stroke-linejoin="round"/>
<path d="M12.8403 13.6997C13.0166 13.876 13.0166 14.1611 12.8403 14.3356C12.664 14.5119 12.3789 14.5119 12.2044 14.3356C12.03 14.1592 12.0281 13.8741 12.2044 13.6997C12.3808 13.5252 12.6659 13.5233 12.8403 13.6997" stroke="#323232" stroke-linecap="round" stroke-linejoin="round"/>
<path fill-rule="evenodd" clip-rule="evenodd" d="M1.49371 4.45233V32.0676C1.49371 33.4613 2.96057 34.3692 4.20797 33.7445L5.6542 33.0205C6.18317 32.756 6.80405 32.756 7.33114 33.0205L10.6569 34.6824C11.184 34.9469 11.8068 34.9469 12.3339 34.6824L15.6596 33.0205C16.1867 32.756 16.8095 32.756 17.3366 33.0205L20.6623 34.6824C21.1913 34.9469 21.8122 34.9469 22.3411 34.6824L25.6632 33.0205C26.1921 32.756 26.813 32.756 27.342 33.0205L28.7901 33.7445C30.0394 34.3692 31.5062 33.4613 31.5062 32.0676V4.45233C31.5062 2.61031 30.0131 1.11719 28.1711 1.11719H4.82885C2.98684 1.11719 1.49371 2.61031 1.49371 4.45233Z" stroke="#323232" stroke-linecap="round" stroke-linejoin="round"/>
</svg>
