<svg width="19" height="20" viewBox="0 0 19 20" fill="none" xmlns="http://www.w3.org/2000/svg">
<path d="M6.70588 7.77778H7.82353V14.4444H6.70588V7.77778Z" fill="#E6383C"/>
<path d="M12.2941 7.77778H11.1765V14.4444H12.2941V7.77778Z" fill="#E6383C"/>
<path fill-rule="evenodd" clip-rule="evenodd" d="M4.47059 3.33333V2.22222C4.47059 0.994923 5.47136 0 6.70588 0H12.2941C13.5286 0 14.5294 0.994923 14.5294 2.22222V3.33333H19V4.44444H16.7647V16.6667C16.7647 18.5076 15.2635 20 13.4118 20H5.58824C3.73646 20 2.23529 18.5076 2.23529 16.6667V4.44444H0V3.33333H4.47059ZM6.70588 1.11111H12.2941C12.9114 1.11111 13.4118 1.60857 13.4118 2.22222V3.33333H5.58824V2.22222C5.58824 1.60857 6.08862 1.11111 6.70588 1.11111ZM3.35294 4.44444V16.6667C3.35294 17.894 4.35372 18.8889 5.58824 18.8889H13.4118C14.6463 18.8889 15.6471 17.894 15.6471 16.6667V4.44444H3.35294Z" fill="#E6383C"/>
</svg>
