<svg width="18" height="14" viewBox="0 0 18 14" fill="none" xmlns="http://www.w3.org/2000/svg">
<path d="M18 1.65738C17.3378 1.93838 16.6262 2.12832 15.8791 2.21356C16.6414 1.77618 17.2272 1.08351 17.5026 0.25863C16.7891 0.663577 15.9986 0.958003 15.1577 1.11596C14.4843 0.429558 13.5245 0 12.4623 0C10.423 0 8.7694 1.5822 8.7694 3.53445C8.7694 3.8112 8.80213 4.08124 8.86524 4.3401C5.79601 4.19266 3.07508 2.78541 1.25364 0.646798C0.93573 1.16898 0.753633 1.7764 0.753633 2.42387C0.753633 3.65012 1.40558 4.73162 2.39648 5.36567C1.79128 5.3471 1.22185 5.18803 0.723946 4.92358C0.723478 4.93835 0.723478 4.95289 0.723478 4.9681C0.723478 6.68007 1.99629 8.10857 3.68542 8.43365C3.37569 8.51397 3.0496 8.55737 2.71275 8.55737C2.47455 8.55737 2.24337 8.53544 2.01779 8.49406C2.48764 9.89795 3.85138 10.9202 5.46735 10.9488C4.20342 11.8965 2.6113 12.4619 0.881031 12.4619C0.58299 12.4619 0.289158 12.4453 0 12.4124C1.6342 13.4152 3.57532 14 5.66066 14C12.4532 14 16.1676 8.61464 16.1676 3.94455C16.1676 3.79152 16.1638 3.63871 16.1568 3.4868C16.8789 2.98878 17.5051 2.36615 18 1.65738Z" fill="white"/>
</svg>
