<?xml version="1.0" encoding="UTF-8"?> <svg xmlns="http://www.w3.org/2000/svg" width="168" height="50" viewBox="0 0 168 50" fill="none"><path d="M123.757 13.89c-7.728 0-14.003 6.215-14.003 13.889 0 7.673 6.267 13.89 14.003 13.89 7.737 0 14.003-6.217 14.003-13.89 0-7.674-6.266-13.89-14.003-13.89zm0 20.554c-3.713 0-6.72-2.983-6.72-6.665 0-3.683 3.007-6.666 6.72-6.666 3.713 0 6.72 2.983 6.72 6.666 0 3.682-3.007 6.665-6.72 6.665z" fill="#FE6F00"></path><path d="M44.806 13.89h-7.283v27.77h7.283V13.89z" fill="#fff"></path><path d="M93.517 13.89c-7.728 0-14.003 6.215-14.003 13.889V50h7.283V39.968a14.028 14.028 0 0 0 6.72 1.7c7.728 0 14.003-6.216 14.003-13.89 0-7.673-6.266-13.889-14.003-13.889zm0 20.554c-3.713 0-6.72-2.983-6.72-6.665 0-3.683 3.007-6.666 6.72-6.666 3.713 0 6.72 2.983 6.72 6.666 0 3.682-3.007 6.665-6.72 6.665z" fill="#FE6F00"></path><path d="M33.6 0v41.66h-8.4L8.4 15.322V41.66H0V0h8.4l16.8 26.337V0h8.4z" fill="#fff"></path><path d="M41.16 10.348c2.32 0 4.2-1.865 4.2-4.166 0-2.3-1.88-4.166-4.2-4.166-2.32 0-4.2 1.865-4.2 4.166s1.88 4.166 4.2 4.166z" fill="#C41818"></path><path d="M153.997 13.89c-7.728 0-14.003 6.215-14.003 13.889v13.89h7.283v-13.89c0-3.683 3.007-6.666 6.72-6.666 3.713 0 6.72 2.983 6.72 6.666v13.89H168v-13.89c0-7.674-6.266-13.89-14.003-13.89z" fill="#FE6F00"></path><path d="M62.723 13.89c-7.728 0-14.003 6.215-14.003 13.889v13.89h7.283v-13.89c0-3.683 3.007-6.666 6.72-6.666 3.713 0 6.72 2.983 6.72 6.666v13.89h7.283v-13.89c0-7.674-6.267-13.89-14.003-13.89z" fill="#fff"></path></svg> 