<svg width="39" height="34" viewBox="0 0 39 34" fill="none" xmlns="http://www.w3.org/2000/svg">
<path d="M32.07 28.306C33.2306 29.4666 33.2306 31.3473 32.07 32.506C30.9094 33.6666 29.0287 33.6666 27.87 32.506C26.7094 31.3454 26.7094 29.4648 27.87 28.306C29.0306 27.1454 30.9112 27.1454 32.07 28.306" stroke="#323232" stroke-linecap="round" stroke-linejoin="round"/>
<path d="M11.445 28.3053C12.6056 29.4659 12.6056 31.3466 11.445 32.5053C10.2844 33.6659 8.40376 33.6659 7.24501 32.5053C6.08626 31.3447 6.08438 29.4641 7.24501 28.3053C8.40563 27.1466 10.2844 27.1447 11.445 28.3053" stroke="#323232" stroke-linecap="round" stroke-linejoin="round"/>
<path d="M15.75 1.5H23.25C24.285 1.5 25.125 2.34 25.125 3.375V22.125H0.75" stroke="#323232" stroke-linecap="round" stroke-linejoin="round"/>
<path d="M6.375 30.405H2.625C1.59 30.405 0.75 29.565 0.75 28.53V18.375" stroke="#323232" stroke-linecap="round" stroke-linejoin="round"/>
<path d="M25.125 7.125H33.2306C33.9975 7.125 34.6875 7.59187 34.9706 8.30437L37.9819 15.8306C38.1581 16.2731 38.25 16.7456 38.25 17.2219V28.3744C38.25 29.4094 37.41 30.2494 36.375 30.2494H32.9419" stroke="#323232" stroke-linecap="round" stroke-linejoin="round"/>
<path d="M27.0001 30.4121H12.3188" stroke="#323232" stroke-linecap="round" stroke-linejoin="round"/>
<path d="M38.25 20.25H30.75V12.75H36.75" stroke="#323232" stroke-linecap="round" stroke-linejoin="round"/>
<path d="M0.75 1.5H10.125" stroke="#323232" stroke-linecap="round" stroke-linejoin="round"/>
<path d="M0.75 7.125H6.375" stroke="#323232" stroke-linecap="round" stroke-linejoin="round"/>
<path d="M2.625 12.75H0.75" stroke="#323232" stroke-linecap="round" stroke-linejoin="round"/>
</svg>
