<svg width="20" height="20" viewBox="0 0 20 20" fill="none" xmlns="http://www.w3.org/2000/svg">
<path fill-rule="evenodd" clip-rule="evenodd" d="M10 12C12.2091 12 14 10.2091 14 8C14 5.79086 12.2091 4 10 4C7.79086 4 6 5.79086 6 8C6 10.2091 7.79086 12 10 12ZM10 11C11.6569 11 13 9.65685 13 8C13 6.34315 11.6569 5 10 5C8.34315 5 7 6.34315 7 8C7 9.65685 8.34315 11 10 11Z" fill="white"/>
<path fill-rule="evenodd" clip-rule="evenodd" d="M10 20C15.5228 20 20 15.5228 20 10C20 4.47715 15.5228 0 10 0C4.47715 0 0 4.47715 0 10C0 15.5228 4.47715 20 10 20ZM16.4064 16.3212C18.0101 14.6961 19 12.4636 19 10C19 5.02944 14.9706 1 10 1C5.02944 1 1 5.02944 1 10C1 12.4636 1.98989 14.6961 3.59363 16.3213C5.32874 14.8721 7.56254 14 10 14C12.4375 14 14.6713 14.8721 16.4064 16.3212ZM15.6573 17C14.1116 15.7492 12.1433 15 10 15C7.85672 15 5.88841 15.7492 4.34268 17C5.8884 18.2508 7.85671 19 10 19C12.1433 19 14.1116 18.2508 15.6573 17Z" fill="white"/>
</svg>
